# xmcd
#
# Track frame offsets:
#	150
#	13453
#	29151
#	44718
#	59782
#	71989
#	88425
#	101866
#	118966
#	133128
#	153082
#	170264
#
# Disc length: 2440 seconds
#
# Revision: 0
# Processed by: cddbd v1.4PL0 Copyright (c) Steve Scherf et al.
# Submitted via: dBpowerAMP V4.0
#
DISCID=c509860c
DTITLE=Roberta Miranda - Sucessos de ouro
DYEAR=1900
DGENRE=Country
TTITLE0=São tantas coisas
TTITLE1=Meu dengo
TTITLE2=Desespero de uma noite
TTITLE3=Que amor é esse
TTITLE4=Rei dos Reis
TTITLE5=Tudo em voce me atrai
TTITLE6=As vezes tu, as vezes eu
TTITLE7=Misterio
TTITLE8=Dia D
TTITLE9=Outra vez
TTITLE10=Vamos falar de nos
TTITLE11=Bom dia trsiteza
EXTD=
EXTT0=
EXTT1=
EXTT2=
EXTT3=
EXTT4=
EXTT5=
EXTT6=
EXTT7=
EXTT8=
EXTT9=
EXTT10=
EXTT11=
PLAYORDER=
